Coordinates
version=1
nRows=16
nColumns=38
inDegrees=no

Units are S.I. units (second, meters, Newtons, ...)
If the header above contains a line with 'inDegrees', this indicates whether rotational values are in degrees (yes) or radians (no).

endheader
time	pelvis_tilt	pelvis_list	pelvis_rotation	pelvis_tx	pelvis_ty	pelvis_tz	hip_flexion_r	hip_adduction_r	hip_rotation_r	knee_angle_r	ankle_angle_r	subtalar_angle_r	mtp_angle_r	hip_flexion_l	hip_adduction_l	hip_rotation_l	knee_angle_l	ankle_angle_l	subtalar_angle_l	mtp_angle_l	lumbar_extension	lumbar_bending	lumbar_rotation	arm_flex_r	arm_add_r	arm_rot_r	elbow_flex_r	pro_sup_r	wrist_flex_r	wrist_dev_r	arm_flex_l	arm_add_l	arm_rot_l	elbow_flex_l	pro_sup_l	wrist_flex_l	wrist_dev_l
2.29	-0.153227	-0.0206799	0.017701	1.21359	0.943501	-0.345631	0.324517	0.120067	0.0546433	-0.925949	0.477408	-0.0297321	-0.00478765	0.702202	0.0355533	0.0635487	-1.7047	0.165768	-0.0337426	-0.011012	-0.145143	0.0871768	0.215257	-0.294794	-0.245757	-0.114923	2.35229	1.78717	-0.00666416	-0.000370953	-0.747522	-0.23879	-0.0238316	1.90734	1.59068	0.0156172	0.0108138
2.3	-0.167027	-0.0102148	0.0153856	1.21538	0.949785	-0.345371	0.278613	0.106667	0.0634183	-0.87133	0.437053	-0.0297321	-0.00478765	0.740435	0.0369369	0.0491191	-1.64878	0.172761	-0.0337426	-0.011012	-0.12406	0.0698502	0.23012	-0.298341	-0.238187	-0.0968816	2.38426	1.80607	-0.00666416	-0.000370953	-0.789702	-0.239211	-0.038365	1.94337	1.57594	0.0156172	0.0108138
2.31	-0.182268	0.00060192	0.0136857	1.21751	0.956355	-0.34524	0.234236	0.0915906	0.0683102	-0.813502	0.386033	-0.0297321	-0.00478765	0.7747	0.0408621	0.0359677	-1.58343	0.177886	-0.0337426	-0.011012	-0.100803	0.0521201	0.242592	-0.302931	-0.234379	-0.0740832	2.41183	1.82072	-0.00666416	-0.000370953	-0.830696	-0.236852	-0.0542466	1.97899	1.56175	0.0156172	0.0108138
2.32	-0.198887	0.0117306	0.0131738	1.21992	0.962978	-0.345272	0.192315	0.0749114	0.0683925	-0.754289	0.32543	-0.0297321	-0.00478765	0.804905	0.0477168	0.0250828	-1.50905	0.181282	-0.0337426	-0.011012	-0.0754923	0.0340529	0.252254	-0.308477	-0.23423	-0.047176	2.43467	1.82971	-0.00666416	-0.000370953	-0.869907	-0.231904	-0.0711171	2.01347	1.54854	0.0156172	0.0108138
2.33	-0.216619	0.0230531	0.0141714	1.22251	0.969453	-0.345489	0.153592	0.0569652	0.0633074	-0.695761	0.25685	-0.0297321	-0.00478765	0.830806	0.0574285	0.0169775	-1.42602	0.183176	-0.0337426	-0.011012	-0.0485716	0.0157766	0.258992	-0.314916	-0.237446	-0.0171568	2.45278	1.832	-0.00666416	-0.000370953	-0.906748	-0.224796	-0.0885056	2.04642	1.53672	0.0156172	0.0108138
2.34	-0.234927	0.0343427	0.0167202	1.2252	0.975614	-0.345895	0.118496	0.0383609	0.0534028	-0.640119	0.182429	-0.0297321	-0.00478765	0.851917	0.0694811	0.0117193	-1.3347	0.183896	-0.0337426	-0.011012	-0.0208776	-0.00247807	0.262993	-0.322204	-0.243563	0.0146917	2.46637	1.82712	-0.00666416	-0.000370953	-0.940588	-0.216159	-0.105855	2.07766	1.52669	0.0156172	0.0108138
2.35	-0.253	0.0452683	0.0206069	1.2279	0.981345	-0.346458	0.0870832	0.0199404	0.0397852	-0.589553	0.104794	-0.0297321	-0.00478765	0.867508	0.0830304	0.00903788	-1.23558	0.183842	-0.0337426	-0.011012	0.00638193	-0.0203609	0.26469	-0.330309	-0.251989	0.0468854	2.47581	1.81535	-0.00666416	-0.000370953	-0.970719	-0.206764	-0.122557	2.10712	1.51889	0.0156172	0.0108138
2.36	-0.269818	0.0554411	0.0254248	1.23053	0.98658	-0.347126	0.0590511	0.00269546	0.0242771	-0.546117	0.0269579	-0.0297321	-0.00478765	0.876689	0.0970764	0.00846544	-1.12935	0.183424	-0.0337426	-0.011012	0.0317385	-0.0374231	0.264675	-0.339241	-0.262049	0.0778511	2.48147	1.79779	-0.00666416	-0.000370953	-0.996367	-0.197446	-0.137992	2.13472	1.51366	0.0156172	0.0108138
2.37	-0.28427	0.0644924	0.0306556	1.23305	0.991272	-0.347824	0.0338451	-0.012344	0.00926503	-0.511626	-0.0478427	-0.0297321	-0.00478765	0.87857	0.11065	0.00946345	-1.01703	0.182991	-0.0337426	-0.011012	0.0536506	-0.0531753	0.263589	-0.349049	-0.273035	0.106063	2.4837	1.77635	-0.00666416	-0.000370953	-1.01674	-0.189012	-0.151591	2.16034	1.51125	0.0156172	0.0108138
2.38	-0.295246	0.0720523	0.0357473	1.23544	0.995373	-0.348471	0.0108499	-0.0242683	-0.00256667	-0.487612	-0.11638	-0.0297321	-0.00478765	0.872484	0.122992	0.0115013	-0.900069	0.182762	-0.0337426	-0.011012	0.0707494	-0.0672186	0.262007	-0.359811	-0.284251	0.130197	2.4827	1.7534	-0.00666416	-0.000370953	-1.03111	-0.182156	-0.162888	2.1838	1.51169	0.0156172	0.0108138
2.39	-0.301991	0.0779751	0.0402086	1.2377	0.998842	-0.34899	-0.0104578	-0.0323733	-0.00863216	-0.475336	-0.17572	-0.0297321	-0.00478765	0.858156	0.133632	0.0141107	-0.780455	0.182799	-0.0337426	-0.011012	0.0819692	-0.0792716	0.260359	-0.371587	-0.295044	0.149271	2.47852	1.73141	-0.00666416	-0.000370953	-1.03893	-0.177378	-0.171581	2.20486	1.51474	0.0156172	0.0108138
2.4	-0.304107	0.0823538	0.043677	1.23983	1.00163	-0.349327	-0.0303242	-0.0362805	-0.00692075	-0.475788	-0.223552	-0.0297321	-0.00478765	0.835884	0.142438	0.0169055	-0.660798	0.183015	-0.0337426	-0.011012	0.0867232	-0.0892561	0.258855	-0.384362	-0.304828	0.162775	2.47106	1.71243	-0.00666416	-0.000370953	-1.03987	-0.174934	-0.177563	2.22324	1.51995	0.0156172	0.0108138
2.41	-0.301573	0.0854909	0.0459544	1.24184	1.00368	-0.349457	-0.0486428	-0.0360211	0.0035273	-0.48967	-0.258515	-0.0297321	-0.00478765	0.806637	0.149606	0.0195992	-0.5444	0.183216	-0.0337426	-0.011012	0.0849478	-0.0973346	0.257456	-0.397978	-0.313095	0.170729	2.46001	1.69769	-0.00666416	-0.000370953	-1.03393	-0.174836	-0.180934	2.23871	1.52673	0.0156172	0.0108138
2.42	-0.294709	0.0878434	0.0470128	1.24371	1.00494	-0.349385	-0.0649807	-0.0320606	0.0222865	-0.517344	-0.280412	-0.0297321	-0.00478765	0.772095	0.155584	0.0220192	-0.43532	0.183169	-0.0337426	-0.011012	0.0770505	-0.103885	0.25589	-0.412111	-0.319428	0.173666	2.44497	1.68742	-0.00666416	-0.000370953	-1.02142	-0.176881	-0.181976	2.25107	1.53436	0.0156172	0.0108138
2.43	-0.284088	0.0899318	0.0469655	1.24541	1.00538	-0.349144	-0.0786881	-0.0252601	0.0475001	-0.55876	-0.290242	-0.0297321	-0.00478765	0.734638	0.160951	0.0240963	-0.338412	0.182698	-0.0337426	-0.011012	0.0637939	-0.109428	0.253705	-0.426276	-0.323504	0.172511	2.42546	1.68095	-0.00666416	-0.000370953	-1.00294	-0.180725	-0.181103	2.2602	1.54215	0.0156172	0.0108138
2.44	-0.270433	0.0922396	0.0460177	1.2469	1.00496	-0.348786	-0.0890371	-0.0167813	0.0761711	-0.613389	-0.289957	-0.0297321	-0.00478765	0.697275	0.166283	0.0258212	-0.259241	0.181784	-0.0337426	-0.011012	0.0461521	-0.114538	0.250353	-0.43987	-0.3251	0.168399	2.40101	1.677	-0.00666416	-0.000370953	-0.979266	-0.185966	-0.178793	2.26607	1.54945	0.0156172	0.0108138
